<svg xmlns="http://www.w3.org/2000/svg" viewBox="0 0 550.28 600"><defs><style>.cls-1,.cls-3,.cls-5,.cls-6,.cls-7,.cls-8{fill:#22b573;}.cls-2{fill:#fff;}.cls-3,.cls-4,.cls-5,.cls-6,.cls-7,.cls-8{stroke:#fff;stroke-miterlimit:10;}.cls-3,.cls-4{stroke-width:10px;}.cls-4{fill:none;}.cls-5{stroke-width:13px;}.cls-6{stroke-width:14px;}.cls-8{font-size:206.02px;stroke-width:0.25px;font-family:BadaBoomBB, BadaBoom BB;}</style></defs><g id="Layer_2" data-name="Layer 2"><rect class="cls-1" x="0.28" width="550" height="600"/></g><g id="Layer_4" data-name="Layer 4"><rect class="cls-2" y="2.03" width="252.59" height="281.56"/><rect class="cls-1" x="54.17" y="256.29" width="77.17" height="49.28"/><rect class="cls-2" x="154.43" y="228.91" width="76.66" height="76.66"/><rect class="cls-1" x="189.7" y="267.24" width="93.36" height="49.09"/><rect class="cls-1" y="2.03" width="54.17" height="97.51"/><rect class="cls-1" x="92.75" y="41.4" width="30.31" height="30.31"/><rect class="cls-1" x="57.32" y="148.35" width="11.81" height="51.97"/><rect class="cls-1" x="80.91" y="235.21" width="73.52" height="7.48"/><rect class="cls-1" x="16.06" y="241.27" width="22.05" height="22.05"/><rect class="cls-1" x="208.5" y="222.61" width="17.32" height="12.6"/></g><g id="Layer_3" data-name="Layer 3"><path class="cls-3" d="M268.19,178.76V41.4" transform="translate(0.28)"/><path class="cls-4" d="M443.37,178.76V41.4" transform="translate(0.28)"/><path class="cls-5" d="M269.09,49.68A1045.55,1045.55,0,0,0,359,113.43" transform="translate(0.28)"/><path class="cls-6" d="M352,113.85A1045.55,1045.55,0,0,1,441.87,50.1" transform="translate(0.28)"/><line class="cls-7" x1="284.73" y1="41.4" x2="426.95" y2="41.4"/><line class="cls-7" x1="283.07" y1="180.08" x2="429.61" y2="180.08"/><text class="cls-8" transform="translate(163.21 191.38) scale(1.01 1)">f</text></g></svg>